<svg width="15" height="14" viewBox="0 0 15 14" fill="none" xmlns="http://www.w3.org/2000/svg">
<path d="M0 9V1.5C0 0.675 0.675 0 1.5 0H13.5C13.8978 0 14.2794 0.158035 14.5607 0.43934C14.842 0.720644 15 1.10218 15 1.5V12.75C14.9979 12.8968 14.9528 13.0398 14.8703 13.1612C14.7877 13.2826 14.6714 13.3771 14.5356 13.433C14.3999 13.4889 14.2507 13.5037 14.1066 13.4756C13.9625 13.4475 13.8298 13.3778 13.725 13.275L10.935 10.5H1.5C1.10218 10.5 0.720644 10.342 0.43934 10.0607C0.158035 9.77936 0 9.39782 0 9ZM13.5 1.5H1.5V9H11.25C11.4478 9.00282 11.6365 9.08369 11.775 9.225L13.5 10.9425V1.5Z" fill="#7E8B94"/>
</svg>
