<svg width="15" height="14" viewBox="0 0 15 14" fill="none" xmlns="http://www.w3.org/2000/svg">
<path d="M8.02533 1.1131C8.81153 0.380515 9.85138 -0.0183112 10.9258 0.000646138C12.0003 0.0196034 13.0254 0.454864 13.7853 1.21473C14.5451 1.97459 14.9804 2.99973 14.9994 4.07417C15.0183 5.14862 14.6195 6.18848 13.8869 6.97467L7.99077 12.8777C7.92651 12.9425 7.85006 12.9939 7.76583 13.029C7.6816 13.0641 7.59125 13.0822 7.5 13.0822C7.40875 13.0822 7.3184 13.0641 7.23417 13.029C7.14994 12.9939 7.07349 12.9425 7.00923 12.8777L1.1131 6.97467C0.380515 6.18848 -0.0183112 5.14862 0.000646138 4.07417C0.0196034 2.99973 0.454864 1.97459 1.21473 1.21473C1.97459 0.454864 2.99973 0.0196034 4.07417 0.000646138C5.14862 -0.0183112 6.18847 0.380515 6.97467 1.1131L7.5 1.63152L8.02533 1.1131ZM12.9123 6.00005C13.4311 5.48124 13.7225 4.77759 13.7225 4.04389C13.7225 3.31018 13.4311 2.60653 12.9123 2.08773C12.6554 1.83084 12.3504 1.62706 12.0148 1.48804C11.6791 1.34901 11.3194 1.27746 10.9561 1.27746C10.2224 1.27746 9.51876 1.56892 8.99996 2.08773L7.99077 3.10382C7.92651 3.16861 7.85006 3.22003 7.76583 3.25513C7.6816 3.29022 7.59125 3.30829 7.5 3.30829C7.40875 3.30829 7.3184 3.29022 7.23417 3.25513C7.14994 3.22003 7.07349 3.16861 7.00923 3.10382L6.00005 2.08773C5.48124 1.56892 4.77759 1.27746 4.04389 1.27746C3.31018 1.27746 2.60653 1.56892 2.08772 2.08773C1.56892 2.60653 1.27746 3.31018 1.27746 4.04389C1.27746 4.77759 1.56892 5.48124 2.08772 6.00005L7.5 11.4123L12.9123 6.00005Z" fill="#7E8B94"/>
</svg>
