<svg width="15" height="15" viewBox="0 0 15 15" fill="none" xmlns="http://www.w3.org/2000/svg">
<path d="M13.5994 7.82935C13.5044 7.61997 13.5044 7.37935 13.5994 7.16997L14.1025 6.06247C14.29 5.64997 14.2981 5.17372 14.125 4.75497C13.9519 4.33685 13.6094 4.0056 13.1856 3.84685L12.0469 3.41935C11.8313 3.33872 11.6613 3.1681 11.5806 2.9531L11.1531 1.81435C10.9931 1.39122 10.6625 1.04872 10.2438 0.874971C9.82564 0.702471 9.34939 0.709971 8.93752 0.897471L7.83002 1.39997C7.62002 1.4956 7.37939 1.4956 7.17002 1.39997L6.06314 0.897471C5.65064 0.709971 5.17439 0.702471 4.75627 0.874971C4.33752 1.04872 4.00689 1.39122 3.84752 1.81497L3.42002 2.95372C3.33939 3.16935 3.16939 3.33935 2.95377 3.41997L1.81502 3.84747C1.39127 4.00622 1.04877 4.33747 0.875017 4.7556C0.701891 5.17435 0.709392 5.6506 0.897517 6.0631L1.40064 7.1706C1.49564 7.37997 1.49564 7.6206 1.40064 7.82997L0.897517 8.93747C0.710017 9.34997 0.701891 9.82622 0.875017 10.245C1.04814 10.6631 1.39064 10.9943 1.81439 11.1531L2.95314 11.5806C3.16877 11.6612 3.33877 11.8318 3.41939 12.0468L3.84689 13.1856C4.00689 13.6087 4.33752 13.9512 4.75627 14.125C4.95689 14.2081 5.17002 14.2493 5.38377 14.2493C5.61564 14.2493 5.84814 14.2006 6.06252 14.1025L7.17002 13.5993C7.38002 13.505 7.62002 13.505 7.83002 13.5993L8.93689 14.1025C9.34939 14.2906 9.82627 14.2981 10.2438 14.125C10.6625 13.9512 10.9931 13.6093 11.1525 13.185L11.58 12.0462C11.6606 11.8306 11.8306 11.6606 12.0469 11.58L13.1856 11.1525C13.61 10.9937 13.9525 10.6625 14.1256 10.2443C14.2988 9.8256 14.2913 9.34935 14.1031 8.93685L13.5994 7.82935Z" fill="#2196F3"/>
<path d="M5.14948 14.9999C4.91198 14.9999 4.6751 14.9542 4.45198 14.8617C3.98698 14.6686 3.61885 14.2886 3.4426 13.8174L2.9676 12.5524C2.8776 12.313 2.68885 12.1236 2.44948 12.0342L1.18385 11.5592C0.713226 11.383 0.332601 11.0149 0.140101 10.5505C-0.0523993 10.0855 -0.0436493 9.55612 0.165101 9.09799L0.724476 7.86737C0.830101 7.63487 0.830101 7.36737 0.724476 7.13487L0.164476 5.90424C-0.0436493 5.44612 -0.0530243 4.91674 0.139476 4.45174C0.332601 3.98737 0.713226 3.61924 1.18448 3.44299L2.44948 2.96799C2.68948 2.87799 2.87823 2.68924 2.96823 2.44987L3.44323 1.18487C3.61948 0.713618 3.98698 0.332993 4.45198 0.140493C4.91635 -0.0520068 5.44573 -0.0432568 5.90385 0.165493L7.13385 0.724243C7.36635 0.830493 7.63323 0.830493 7.86635 0.724243L9.0976 0.165493C9.5551 -0.0426318 10.0851 -0.0513818 10.5495 0.140493C11.0145 0.333618 11.3826 0.713618 11.5589 1.18487L12.0339 2.44987C12.1239 2.68924 12.3126 2.87862 12.552 2.96799L13.8176 3.44299C14.2882 3.61924 14.6689 3.98737 14.8614 4.45174C15.0539 4.91674 15.0451 5.44612 14.8364 5.90424L14.277 7.13487C14.1714 7.36737 14.1714 7.63487 14.277 7.86737L14.8364 9.09799C15.0445 9.55612 15.0539 10.0855 14.8614 10.5505C14.6689 11.0149 14.2882 11.383 13.817 11.5592L12.552 12.0342C12.312 12.1242 12.1232 12.313 12.0332 12.5524L11.5582 13.8174C11.3814 14.2886 11.0139 14.6686 10.5489 14.8617C10.0845 15.0542 9.5551 15.0455 9.09698 14.8367L7.86698 14.2774C7.63385 14.1724 7.36698 14.1724 7.13385 14.2774L5.90323 14.8367C5.6651 14.9455 5.40698 14.9999 5.14948 14.9999ZM5.14948 0.938618C5.0351 0.938618 4.9201 0.961118 4.81073 1.00612C4.58135 1.10112 4.4076 1.28112 4.3201 1.51362L3.8451 2.77862C3.66073 3.27112 3.27135 3.65987 2.77823 3.84487L1.51323 4.32049C1.28073 4.40799 1.10073 4.58174 1.00573 4.81049C0.910726 5.03924 0.915101 5.29049 1.0176 5.51612L1.57698 6.74674C1.7951 7.22674 1.7951 7.77549 1.57698 8.25549L1.0176 9.48612C0.915101 9.71174 0.910726 9.96299 1.00573 10.1917C1.10073 10.4205 1.28073 10.5949 1.51323 10.6817L2.77885 11.1567C3.27198 11.3417 3.66073 11.7305 3.84573 12.223L4.32073 13.488C4.40823 13.7205 4.58198 13.9005 4.81135 13.9955C5.04073 14.0899 5.29135 14.0861 5.51635 13.983L6.74698 13.4236C7.22635 13.2049 7.77573 13.2049 8.2551 13.4236L9.48573 13.983C9.71198 14.0855 9.96135 14.0899 10.1914 13.9955C10.4207 13.9005 10.5945 13.7205 10.682 13.488L11.157 12.223C11.3414 11.7305 11.7307 11.3417 12.2239 11.1567L13.4889 10.6817C13.7214 10.5942 13.9014 10.4205 13.9964 10.1917C14.0914 9.96299 14.087 9.71174 13.9845 9.48612L13.4251 8.25549C13.207 7.77549 13.207 7.22674 13.4251 6.74674L13.9845 5.51612C14.087 5.29049 14.0914 5.03924 13.9964 4.81049C13.9014 4.58174 13.7214 4.40737 13.4889 4.32049L12.2232 3.84549C11.7301 3.66049 11.3414 3.27174 11.1564 2.77924L10.6814 1.51424C10.5939 1.28174 10.4201 1.10174 10.1907 1.00674C9.96073 0.912993 9.71135 0.916743 9.48573 1.01924L8.2551 1.57799C7.77573 1.79674 7.22635 1.79674 6.74635 1.57799L5.51635 1.01862C5.39885 0.965493 5.27448 0.938618 5.14948 0.938618Z" fill="#2196F3"/>
<path d="M6.16362 10.6208L3.45529 7.78931C3.29257 7.61921 3.29257 7.3434 3.45529 7.17327L4.04453 6.55723C4.20724 6.3871 4.47107 6.3871 4.63378 6.55723L6.45825 8.4646L10.366 4.3792C10.5288 4.20909 10.7926 4.20909 10.9553 4.3792L11.5445 4.99524C11.7073 5.16535 11.7073 5.44116 11.5445 5.61128L6.75288 10.6208C6.59015 10.7909 6.32633 10.7909 6.16362 10.6208V10.6208Z" fill="white"/>
</svg>
