<svg width="15" height="15" viewBox="0 0 15 15" fill="none" xmlns="http://www.w3.org/2000/svg">
<path d="M10.541 12.4425V3C10.541 2.60217 10.383 2.22064 10.1017 1.93934C9.82038 1.65804 9.43885 1.5 9.04102 1.5C8.84211 1.5 8.65135 1.42098 8.51069 1.28033C8.37004 1.13968 8.29102 0.948913 8.29102 0.75C8.29102 0.551087 8.37004 0.360322 8.51069 0.219669C8.65135 0.0790167 8.84211 0 9.04102 0C9.83667 0 10.5997 0.316072 11.1623 0.87868C11.725 1.44129 12.041 2.20435 12.041 3V12.4425L13.766 10.7175C13.9104 10.5956 14.0954 10.5326 14.2841 10.5412C14.4729 10.5498 14.6514 10.6293 14.7841 10.7639C14.9167 10.8984 14.9937 11.0781 14.9996 11.2669C15.0056 11.4558 14.94 11.6399 14.816 11.7825L11.816 14.7825C11.6758 14.9199 11.4873 14.9969 11.291 14.9969C11.0947 14.9969 10.9062 14.9199 10.766 14.7825L7.76602 11.7825C7.68708 11.7158 7.62276 11.6335 7.57712 11.5408C7.53147 11.4481 7.50548 11.3469 7.50078 11.2437C7.49607 11.1405 7.51276 11.0374 7.54978 10.9409C7.5868 10.8444 7.64337 10.7566 7.71592 10.683C7.78848 10.6094 7.87546 10.5516 7.97141 10.5132C8.06737 10.4748 8.17021 10.4567 8.27351 10.4599C8.37681 10.4632 8.47832 10.4877 8.57167 10.532C8.66503 10.5764 8.74822 10.6395 8.81602 10.7175L10.541 12.45V12.4425ZM4.54102 12C4.54102 12.3978 4.69906 12.7794 4.98036 13.0607C5.26167 13.342 5.6432 13.5 6.04102 13.5C6.23994 13.5 6.4307 13.579 6.57135 13.7197C6.71201 13.8603 6.79102 14.0511 6.79102 14.25C6.79102 14.4489 6.71201 14.6397 6.57135 14.7803C6.4307 14.921 6.23994 15 6.04102 15C5.24537 15 4.48231 14.6839 3.9197 14.1213C3.35709 13.5587 3.04102 12.7956 3.04102 12L3.04102 2.5575L1.31602 4.2825C1.24822 4.36049 1.16503 4.42364 1.07167 4.46796C0.978316 4.51229 0.876805 4.53684 0.77351 4.54008C0.670215 4.54332 0.567365 4.52517 0.471413 4.48678C0.375461 4.4484 0.288479 4.39059 0.215922 4.317C0.143366 4.24341 0.0868016 4.15561 0.0497787 4.05913C0.0127558 3.96264 -0.00392683 3.85954 0.000777469 3.75631C0.00548176 3.65307 0.0314715 3.55191 0.077116 3.45919C0.12276 3.36647 0.187075 3.28419 0.266023 3.2175L3.26602 0.217501C3.40622 0.08008 3.59471 0.00310707 3.79102 0.00310707C3.98734 0.00310707 4.17583 0.08008 4.31602 0.217501L7.31602 3.2175C7.43998 3.36009 7.50555 3.54422 7.49963 3.73306C7.49371 3.92191 7.41673 4.10157 7.28408 4.23611C7.15143 4.37066 6.97288 4.45018 6.78414 4.45878C6.5954 4.46738 6.41036 4.40442 6.26602 4.2825L4.54102 2.55L4.54102 12Z" fill="#7E8B94"/>
</svg>
