<svg width="13" height="15" viewBox="0 0 13 15" fill="none" xmlns="http://www.w3.org/2000/svg">
<path d="M7.22222 2.45979V10.8303C7.22222 11.0219 7.14613 11.2056 7.01069 11.341C6.87525 11.4765 6.69155 11.5526 6.5 11.5526C6.30845 11.5526 6.12475 11.4765 5.98931 11.341C5.85387 11.2056 5.77778 11.0219 5.77778 10.8303V2.45979L3.39444 4.84312C3.25545 4.96053 3.07727 5.02115 2.89552 5.01287C2.71376 5.00459 2.54183 4.92801 2.4141 4.79845C2.28636 4.66889 2.21223 4.49589 2.20653 4.31403C2.20082 4.13218 2.26397 3.95487 2.38333 3.81756L5.99444 0.206452C6.12945 0.0741219 6.31096 0 6.5 0C6.68904 0 6.87055 0.0741219 7.00556 0.206452L10.6167 3.81756C10.6927 3.88178 10.7546 3.96102 10.7986 4.05031C10.8425 4.13959 10.8676 4.237 10.8721 4.33641C10.8766 4.43583 10.8606 4.53511 10.8249 4.62802C10.7893 4.72093 10.7348 4.80548 10.6649 4.87634C10.595 4.94721 10.5113 5.00287 10.4189 5.03984C10.3265 5.0768 10.2274 5.09428 10.128 5.09116C10.0285 5.08804 9.93075 5.06439 9.84085 5.02171C9.75095 4.97903 9.67085 4.91823 9.60555 4.84312L7.22222 2.45256V2.45979ZM0 10.8303C0 10.6388 0.076091 10.4551 0.211534 10.3197C0.346977 10.1842 0.530677 10.1081 0.722222 10.1081C0.913767 10.1081 1.09747 10.1842 1.23291 10.3197C1.36835 10.4551 1.44444 10.6388 1.44444 10.8303V12.997H11.5556V10.8303C11.5556 10.6388 11.6316 10.4551 11.7671 10.3197C11.9025 10.1842 12.0862 10.1081 12.2778 10.1081C12.4693 10.1081 12.653 10.1842 12.7885 10.3197C12.9239 10.4551 13 10.6388 13 10.8303V12.997C13 13.3801 12.8478 13.7475 12.5769 14.0184C12.306 14.2893 11.9386 14.4415 11.5556 14.4415H1.44444C1.06135 14.4415 0.693954 14.2893 0.423068 14.0184C0.152182 13.7475 0 13.3801 0 12.997V10.8303Z" fill="#7E8B94"/>
</svg>
